<svg width="720" height="420" viewBox="0 0 720 420" fill="none" xmlns="http://www.w3.org/2000/svg">
  <rect width="720" height="420" rx="24" fill="#08111D"/>
  <rect x="1" y="1" width="718" height="418" rx="23" stroke="#1EBBE5" stroke-opacity=".25" stroke-width="2"/>
  <text x="44" y="64" fill="#F4F7FB" font-family="Inter,Arial" font-size="26" font-weight="900">Project follow-up</text>
  <rect x="44" y="108" width="108" height="246" rx="16" fill="#0E1B2B" stroke="#26364B"/>
  <rect x="170" y="108" width="108" height="246" rx="16" fill="#0E1B2B" stroke="#26364B"/>
  <rect x="296" y="108" width="108" height="246" rx="16" fill="#0E1B2B" stroke="#26364B"/>
  <rect x="422" y="108" width="108" height="246" rx="16" fill="#0E1B2B" stroke="#26364B"/>
  <rect x="548" y="108" width="108" height="246" rx="16" fill="#0E1B2B" stroke="#26364B"/>
  <g font-family="Inter,Arial" font-size="13" font-weight="900" fill="#A9B6C9">
    <text x="62" y="136">To do</text>
    <text x="188" y="136">Doing</text>
    <text x="314" y="136">Review</text>
    <text x="440" y="136">Done</text>
    <text x="566" y="136">Archive</text>
  </g>
  <rect x="60" y="164" width="76" height="58" rx="10" fill="#121F31" stroke="#334458"/>
  <rect x="186" y="164" width="76" height="58" rx="10" fill="#10223A" stroke="#2E9BFF" stroke-opacity=".38"/>
  <rect x="312" y="164" width="76" height="58" rx="10" fill="#211B39" stroke="#8B5CF6" stroke-opacity=".46"/>
  <rect x="438" y="164" width="76" height="58" rx="10" fill="#102D25" stroke="#80FFDB" stroke-opacity=".42"/>
  <rect x="60" y="240" width="76" height="58" rx="10" fill="#121F31" stroke="#334458"/>
  <rect x="186" y="240" width="76" height="58" rx="10" fill="#10223A" stroke="#2E9BFF" stroke-opacity=".38"/>
  <rect x="438" y="240" width="76" height="58" rx="10" fill="#102D25" stroke="#80FFDB" stroke-opacity=".42"/>
  <g font-family="Inter,Arial" font-size="10" font-weight="800" fill="#EAF6FF">
    <text x="72" y="190">Cable clips</text>
    <text x="198" y="190">Tool rack</text>
    <text x="322" y="190">Vase test</text>
    <text x="450" y="190">Print case</text>
    <text x="72" y="266">Labels</text>
    <text x="198" y="266">Shelf tabs</text>
    <text x="450" y="266">Spool hub</text>
  </g>
</svg>
